<svg width="102" height="20" viewBox="0 0 102 20" fill="none" xmlns="http://www.w3.org/2000/svg">
<path fill-rule="evenodd" clip-rule="evenodd" d="M4.04378 0L7.54964 14.231C7.63158 14.5595 7.89794 14.8131 8.24108 14.8131C8.54583 14.8131 8.81217 14.6216 8.90693 14.3371L12.2875 0.861462C12.4591 0.349259 12.9405 1.23345e-05 13.4834 0C14.0877 0 14.6051 0.432044 14.7204 1.01929L18.4644 14.3216C18.5208 14.6087 18.7769 14.8156 19.0688 14.8156C19.3351 14.8156 19.5657 14.6501 19.6527 14.4018C20.0574 13.235 21.2584 9.80462 22.4236 6.79338C23.8552 3.10176 25.5301 0 30.5316 0C34.3116 1.0846e-05 36.0505 2.74485 36.24 6.48304L37.6997 19.837H33.697L33.0055 12.7383C32.6265 14.3086 31.6482 16.0316 31.0028 17.1983C30.0322 18.9962 28.6493 20 26.8617 20C25.8246 20 24.9565 19.63 24.2906 18.9444C23.6222 18.2537 23.3097 17.338 23.3097 16.2385C23.3097 15.2761 23.553 14.3759 24.037 13.548C24.5083 12.7202 25.1561 11.9363 25.9705 11.1913C26.7951 10.4333 27.8657 9.5744 29.1769 8.61462L32.4165 6.60713C32.4164 3.74595 30.9311 2.94917 29.6609 2.89484C27.4841 2.8069 25.4021 3.7615 23.8399 7.67298L20.1188 18.2305C19.7552 19.2653 19.033 19.9973 17.6655 19.9973C16.2979 19.9973 15.5193 19.2264 15.0968 17.77C14.6742 16.3134 12.4718 7.87991 12.4718 7.87991H12.3284C12.3284 7.87991 10.0389 16.6395 9.56513 18.2331C9.22964 19.361 8.17455 19.9973 7.05799 19.9973C5.77239 19.9973 4.74293 19.0531 4.42793 17.7984L0 0H4.04378ZM31.4305 8.5758C29.6455 9.84084 28.4111 10.9197 27.6992 11.8096C27.0206 12.6659 26.7005 13.5325 26.7005 14.425C26.7005 15.1312 26.8566 15.6046 27.1127 15.9099C27.3893 16.2126 27.753 16.373 28.2447 16.373C28.9643 16.373 29.5995 16.0445 30.1578 15.2969V15.2917C30.757 14.5156 31.2282 13.517 31.5586 12.283L31.5611 12.2778H31.5662C31.9145 10.9533 32.6624 9.10103 32.5779 7.88257L31.4305 8.5758Z" fill="#112A28"/>
<path fill-rule="evenodd" clip-rule="evenodd" d="M102 4.0797L101.506 3.97883C100.986 3.87277 100.563 3.82355 100.235 3.82355C99.1394 3.82355 98.2764 4.13397 97.6131 4.72637C96.9523 5.3369 96.453 6.19326 96.1252 7.32636C95.8153 8.45169 95.6565 9.79178 95.6565 11.3466V19.8318H91.6102V9.48903C90.4523 14.0341 88.7752 16.5932 87.9148 17.5785C86.5856 19.0971 84.921 19.9923 82.9696 19.9923C81.6558 19.9923 80.4752 19.5938 79.4355 18.8022L79.4304 18.797H79.4252C78.4137 17.9847 77.6351 16.8697 77.0742 15.4702V15.4624C76.539 14.0396 76.2753 12.3917 76.2753 10.5317C76.2753 8.56037 76.5724 6.71578 77.1742 5.14289C77.7734 3.5571 78.6032 2.29984 79.6762 1.39699C80.7543 0.473435 81.9734 0 83.323 0C85.0849 3.75429e-06 86.5242 0.631237 87.5972 1.90143C87.5972 1.90661 89.1313 3.37344 89.4642 7.14785L89.5051 7.66778H80.0859C80.0706 8.00149 80.0629 8.35078 80.0629 8.71295C80.0629 11.08 80.1577 14.8208 82.3857 16.3368C83.8711 17.3457 86.0172 16.6705 87.0134 15.2969C87.7817 14.2362 91.1544 10.1694 91.6102 0.325937H95.6565V5.02909C96.0509 4.03828 96.5247 3.19236 97.0804 2.49646C98.343 0.923575 99.8489 0 101.588 0H102V4.0797ZM83.1335 1.51599C82.6623 1.51599 82.2602 1.65571 81.9043 1.93251C81.5432 2.21449 81.2153 2.65682 80.9336 3.28802C80.5905 4.04341 80.3446 5.00579 80.2063 6.17767H85.7355C85.6228 4.81435 85.3462 3.72007 84.9236 2.8819C84.4319 1.9092 83.8301 1.516 83.1335 1.51599Z" fill="#112A28"/>
<path d="M49.2624 4.0797L48.7682 3.97883C48.2483 3.87277 47.8257 3.82355 47.4979 3.82355C46.4018 3.82355 45.5388 4.13397 44.8755 4.72637C44.2173 5.3369 43.7153 6.19322 43.3875 7.3289C43.0802 8.45424 42.9215 9.79178 42.9215 11.3466V19.8318H38.8752V0.325937H42.9215V5.02909C43.3159 4.03828 43.7896 3.19236 44.3454 2.49646H44.3428C45.6054 0.923585 47.1112 8.8381e-06 48.8501 0H49.2624V4.0797Z" fill="#112A28"/>
<path d="M70.0164 0C71.5632 1.20164e-05 72.7821 0.55368 73.6016 1.6997V1.70224H73.6144C74.4185 2.80429 74.7873 4.4289 74.7873 6.50106V19.8292H70.7411V6.8865C70.741 5.45852 70.5156 4.48586 70.1315 3.89345L70.1265 3.88825L70.1213 3.88305C69.7731 3.30616 69.2506 3.01131 68.4772 3.01131C67.3402 3.01131 66.4335 3.61402 65.7549 4.96184C65.0634 6.33812 64.7049 8.12056 64.7049 10.335V19.8292H60.6919V6.8865C60.6919 5.45853 60.4665 4.48586 60.0824 3.89345L60.0721 3.88305C59.7238 3.30617 59.2014 3.01131 58.428 3.01131C57.8313 3.01131 57.3165 3.16911 56.8684 3.48213C56.4177 3.79516 56.0156 4.27894 55.675 4.9593C55.0041 6.33557 54.6557 8.12057 54.6557 10.335V19.8292H50.6428V0.323395H54.6557V4.08998C54.9221 3.41738 55.2397 2.81464 55.6136 2.29207C56.6994 0.778688 58.1643 0.00519928 59.9749 0.00519928C61.5012 0.00521259 62.7074 0.561358 63.5269 1.70479C64.0519 2.42655 64.3924 3.36309 64.564 4.49102C64.8662 3.63732 65.2402 2.89226 65.6909 2.25845V2.25325C66.7742 0.760572 68.2263 0 70.0164 0Z" fill="#112A28"/>
</svg>
